<mxfile host="app.diagrams.net" agent="Mozilla/5.0 (Macintosh; Intel Mac OS X 10_15_7) AppleWebKit/537.36 (KHTML, like Gecko) Chrome/128.0.0.0 Safari/537.36" version="24.7.6">
  <diagram id="C5RBs43oDa-KdzZeNtuy" name="Page-1">
    <mxGraphModel dx="1026" dy="650" grid="1" gridSize="10" guides="1" tooltips="1" connect="1" arrows="1" fold="1" page="1" pageScale="1" pageWidth="827" pageHeight="1169" math="0" shadow="0">
      <root>
        <mxCell id="WIyWlLk6GJQsqaUBKTNV-0" />
        <mxCell id="WIyWlLk6GJQsqaUBKTNV-1" parent="WIyWlLk6GJQsqaUBKTNV-0" />
        <mxCell id="Z1byHfT0aqqH1TQorKUT-2" style="rounded=0;orthogonalLoop=1;jettySize=auto;html=1;entryX=0;entryY=0.5;entryDx=0;entryDy=0;" edge="1" parent="WIyWlLk6GJQsqaUBKTNV-1" source="Z1byHfT0aqqH1TQorKUT-0" target="Z1byHfT0aqqH1TQorKUT-1">
          <mxGeometry relative="1" as="geometry" />
        </mxCell>
        <mxCell id="Z1byHfT0aqqH1TQorKUT-5" style="rounded=0;orthogonalLoop=1;jettySize=auto;html=1;exitX=1;exitY=0.3333333333333333;exitDx=0;exitDy=0;exitPerimeter=0;entryX=0;entryY=0.5;entryDx=0;entryDy=0;" edge="1" parent="WIyWlLk6GJQsqaUBKTNV-1" source="Z1byHfT0aqqH1TQorKUT-0" target="Z1byHfT0aqqH1TQorKUT-4">
          <mxGeometry relative="1" as="geometry" />
        </mxCell>
        <mxCell id="Z1byHfT0aqqH1TQorKUT-0" value="Wallet EOA" style="shape=umlActor;verticalLabelPosition=bottom;verticalAlign=top;html=1;outlineConnect=0;" vertex="1" parent="WIyWlLk6GJQsqaUBKTNV-1">
          <mxGeometry x="40" y="220" width="30" height="60" as="geometry" />
        </mxCell>
        <mxCell id="Z1byHfT0aqqH1TQorKUT-8" value="" style="edgeStyle=orthogonalEdgeStyle;rounded=0;orthogonalLoop=1;jettySize=auto;html=1;" edge="1" parent="WIyWlLk6GJQsqaUBKTNV-1" source="Z1byHfT0aqqH1TQorKUT-1" target="Z1byHfT0aqqH1TQorKUT-7">
          <mxGeometry relative="1" as="geometry" />
        </mxCell>
        <mxCell id="Z1byHfT0aqqH1TQorKUT-19" style="edgeStyle=orthogonalEdgeStyle;rounded=0;orthogonalLoop=1;jettySize=auto;html=1;" edge="1" parent="WIyWlLk6GJQsqaUBKTNV-1" source="Z1byHfT0aqqH1TQorKUT-1">
          <mxGeometry relative="1" as="geometry">
            <mxPoint x="370" y="270" as="targetPoint" />
          </mxGeometry>
        </mxCell>
        <mxCell id="Z1byHfT0aqqH1TQorKUT-1" value="USD1 Proxy Contract" style="rounded=1;whiteSpace=wrap;html=1;" vertex="1" parent="WIyWlLk6GJQsqaUBKTNV-1">
          <mxGeometry x="300" y="130" width="140" height="60" as="geometry" />
        </mxCell>
        <mxCell id="Z1byHfT0aqqH1TQorKUT-3" value="(1) approve(burnAddr, acmount)" style="text;html=1;align=center;verticalAlign=middle;whiteSpace=wrap;rounded=0;rotation=-20;" vertex="1" parent="WIyWlLk6GJQsqaUBKTNV-1">
          <mxGeometry x="80" y="170" width="190" height="20" as="geometry" />
        </mxCell>
        <mxCell id="Z1byHfT0aqqH1TQorKUT-18" style="edgeStyle=orthogonalEdgeStyle;rounded=0;orthogonalLoop=1;jettySize=auto;html=1;entryX=0.5;entryY=1;entryDx=0;entryDy=0;" edge="1" parent="WIyWlLk6GJQsqaUBKTNV-1" source="Z1byHfT0aqqH1TQorKUT-4" target="Z1byHfT0aqqH1TQorKUT-1">
          <mxGeometry relative="1" as="geometry" />
        </mxCell>
        <mxCell id="Z1byHfT0aqqH1TQorKUT-23" value="" style="edgeStyle=orthogonalEdgeStyle;rounded=0;orthogonalLoop=1;jettySize=auto;html=1;" edge="1" parent="WIyWlLk6GJQsqaUBKTNV-1" source="Z1byHfT0aqqH1TQorKUT-4" target="Z1byHfT0aqqH1TQorKUT-22">
          <mxGeometry relative="1" as="geometry" />
        </mxCell>
        <mxCell id="Z1byHfT0aqqH1TQorKUT-4" value="Bridge Contract" style="rounded=1;whiteSpace=wrap;html=1;" vertex="1" parent="WIyWlLk6GJQsqaUBKTNV-1">
          <mxGeometry x="300" y="270" width="140" height="60" as="geometry" />
        </mxCell>
        <mxCell id="Z1byHfT0aqqH1TQorKUT-6" value="(3) bridge(chainId, destAddr, amount)" style="text;html=1;align=center;verticalAlign=middle;whiteSpace=wrap;rounded=0;rotation=15;" vertex="1" parent="WIyWlLk6GJQsqaUBKTNV-1">
          <mxGeometry x="60" y="280" width="250" height="30" as="geometry" />
        </mxCell>
        <mxCell id="Z1byHfT0aqqH1TQorKUT-7" value="Logic Contract (ERC20)" style="rounded=1;whiteSpace=wrap;html=1;" vertex="1" parent="WIyWlLk6GJQsqaUBKTNV-1">
          <mxGeometry x="570" y="130" width="140" height="60" as="geometry" />
        </mxCell>
        <mxCell id="Z1byHfT0aqqH1TQorKUT-9" value="(2) delegatecall" style="text;html=1;align=center;verticalAlign=middle;whiteSpace=wrap;rounded=0;" vertex="1" parent="WIyWlLk6GJQsqaUBKTNV-1">
          <mxGeometry x="470" y="130" width="90" height="20" as="geometry" />
        </mxCell>
        <mxCell id="Z1byHfT0aqqH1TQorKUT-20" value="(4) call transferFrom &lt;br&gt;to recieve USD1" style="text;html=1;align=center;verticalAlign=middle;whiteSpace=wrap;rounded=0;" vertex="1" parent="WIyWlLk6GJQsqaUBKTNV-1">
          <mxGeometry x="370" y="220" width="140" height="30" as="geometry" />
        </mxCell>
        <mxCell id="Z1byHfT0aqqH1TQorKUT-21" value="(5) success" style="text;html=1;align=center;verticalAlign=middle;whiteSpace=wrap;rounded=0;" vertex="1" parent="WIyWlLk6GJQsqaUBKTNV-1">
          <mxGeometry x="280" y="220" width="70" height="30" as="geometry" />
        </mxCell>
        <mxCell id="Z1byHfT0aqqH1TQorKUT-26" value="" style="edgeStyle=orthogonalEdgeStyle;rounded=0;orthogonalLoop=1;jettySize=auto;html=1;" edge="1" parent="WIyWlLk6GJQsqaUBKTNV-1" source="Z1byHfT0aqqH1TQorKUT-22" target="Z1byHfT0aqqH1TQorKUT-25">
          <mxGeometry relative="1" as="geometry" />
        </mxCell>
        <mxCell id="Z1byHfT0aqqH1TQorKUT-32" style="rounded=0;orthogonalLoop=1;jettySize=auto;html=1;entryX=1;entryY=0.5;entryDx=0;entryDy=0;" edge="1" parent="WIyWlLk6GJQsqaUBKTNV-1" source="Z1byHfT0aqqH1TQorKUT-22" target="Z1byHfT0aqqH1TQorKUT-1">
          <mxGeometry relative="1" as="geometry" />
        </mxCell>
        <mxCell id="Z1byHfT0aqqH1TQorKUT-22" value="Mint/Burn Server" style="rounded=1;whiteSpace=wrap;html=1;" vertex="1" parent="WIyWlLk6GJQsqaUBKTNV-1">
          <mxGeometry x="570" y="270" width="140" height="60" as="geometry" />
        </mxCell>
        <mxCell id="Z1byHfT0aqqH1TQorKUT-24" value="(5) emit BridgeEvent" style="text;html=1;align=center;verticalAlign=middle;whiteSpace=wrap;rounded=0;" vertex="1" parent="WIyWlLk6GJQsqaUBKTNV-1">
          <mxGeometry x="440" y="300" width="120" height="30" as="geometry" />
        </mxCell>
        <mxCell id="Z1byHfT0aqqH1TQorKUT-31" style="edgeStyle=orthogonalEdgeStyle;rounded=0;orthogonalLoop=1;jettySize=auto;html=1;entryX=0.5;entryY=1;entryDx=0;entryDy=0;" edge="1" parent="WIyWlLk6GJQsqaUBKTNV-1" source="Z1byHfT0aqqH1TQorKUT-25" target="Z1byHfT0aqqH1TQorKUT-22">
          <mxGeometry relative="1" as="geometry" />
        </mxCell>
        <mxCell id="Z1byHfT0aqqH1TQorKUT-25" value="Key Server" style="rounded=1;whiteSpace=wrap;html=1;" vertex="1" parent="WIyWlLk6GJQsqaUBKTNV-1">
          <mxGeometry x="570" y="410" width="140" height="60" as="geometry" />
        </mxCell>
        <mxCell id="Z1byHfT0aqqH1TQorKUT-27" value="(6) request mint or burn signature" style="text;html=1;align=center;verticalAlign=middle;whiteSpace=wrap;rounded=0;" vertex="1" parent="WIyWlLk6GJQsqaUBKTNV-1">
          <mxGeometry x="660" y="360" width="196" height="20" as="geometry" />
        </mxCell>
        <mxCell id="Z1byHfT0aqqH1TQorKUT-29" value="(7) signature" style="text;html=1;align=center;verticalAlign=middle;whiteSpace=wrap;rounded=0;" vertex="1" parent="WIyWlLk6GJQsqaUBKTNV-1">
          <mxGeometry x="550" y="360" width="80" height="25" as="geometry" />
        </mxCell>
        <mxCell id="Z1byHfT0aqqH1TQorKUT-33" value="(8) call mint or burn with signature" style="text;html=1;align=center;verticalAlign=middle;whiteSpace=wrap;rounded=0;" vertex="1" parent="WIyWlLk6GJQsqaUBKTNV-1">
          <mxGeometry x="550" y="210" width="210" height="20" as="geometry" />
        </mxCell>
        <mxCell id="Z1byHfT0aqqH1TQorKUT-34" value="(9) delegatecall" style="text;html=1;align=center;verticalAlign=middle;whiteSpace=wrap;rounded=0;" vertex="1" parent="WIyWlLk6GJQsqaUBKTNV-1">
          <mxGeometry x="470" y="170" width="90" height="20" as="geometry" />
        </mxCell>
      </root>
    </mxGraphModel>
  </diagram>
</mxfile>
